<svg width="133" height="159" viewBox="0 0 133 159" fill="none" xmlns="http://www.w3.org/2000/svg">
<path fill-rule="evenodd" clip-rule="evenodd" d="M104.033 20.7179C102.078 28.2249 95.254 33.7669 87.133 33.7669C77.488 33.7669 69.668 25.9479 69.669 16.3019C69.6656 13.2181 70.4826 10.1889 72.036 7.52494L72.063 7.48194C72.0858 7.44345 72.1084 7.40496 72.1309 7.3665C72.1804 7.28205 72.2298 7.19776 72.282 7.11394L72.292 7.11694L75.442 2.12094C75.442 2.12094 75.997 0.78894 78.6 0.78894C81.203 0.78894 91.205 1.01494 100.975 3.22694C100.975 3.22694 102.889 3.80394 103.51 6.52294C104.133 9.24194 104.584 15.7599 104.584 15.7599C104.592 15.9399 104.598 16.1199 104.598 16.3019C104.598 16.3479 104.596 16.392 104.594 16.437V16.4371V16.4371L104.594 16.4399L110.135 17.2649C111.313 17.4403 112.126 18.5376 111.951 19.7159C111.775 20.8936 110.678 21.7061 109.5 21.5319L104.033 20.7179ZM125.535 73.0739V73.0759C129.38 73.4011 132.337 76.6159 132.339 80.4749C132.339 82.4457 131.557 84.3358 130.163 85.7294C128.77 87.123 126.88 87.9059 124.909 87.9059L91.552 87.0859C89.087 86.9689 87.468 83.6949 87.468 83.6949L84.695 77.8389L80.765 92.1699C80.765 92.1699 80.456 94.1739 81.843 94.9439C83.229 95.7149 104.497 107.273 104.497 107.273C104.497 107.273 108.04 108.813 109.118 114.207C110.075 118.987 113.837 141.068 114.679 146.033C115.588 149.816 113.424 153.659 109.719 154.844C106.013 156.028 102.021 154.153 100.567 150.545H100.565C100.334 149.975 100.174 149.371 100.092 148.741L92.477 119.679L69.592 111.048C69.592 111.048 65.508 110.123 64.66 112.127C63.422 115.053 58.881 129.001 58.881 129.001C58.881 129.001 57.958 131.314 56.108 132.854C54.258 134.395 26.533 156.445 26.533 156.445C24.5825 158.396 21.7117 159.105 19.077 158.288C16.4423 157.47 14.4774 155.26 13.9737 152.548C13.47 149.836 14.5104 147.068 16.676 145.359L40.236 124.996L43.318 107.891L52.718 109.74C52.718 109.74 53.281 109.879 54.009 109.775H54.007C53.9771 109.773 53.9472 109.771 53.9175 109.769H53.9173C53.8316 109.764 53.7463 109.758 53.661 109.742L2.46497 99.8189C0.840765 99.5 -0.220584 97.9288 0.0899716 96.3029L7.50097 58.0609C7.82234 56.4384 9.39194 55.3787 11.017 55.6869L26.195 58.6279L26.827 54.1089C26.827 54.1089 27.135 46.0959 34.995 44.2459C42.854 42.3969 66.74 37.9279 66.74 37.9279C66.74 37.9279 77.99 35.6159 83.539 41.3179C89.086 47.0199 89.547 49.7939 89.547 49.7939L98.793 70.9059L125.535 73.0739ZM54.104 57.8069L52.315 63.6869L62.213 65.6059L41.999 61.6889L42.547 59.1929L54.104 57.8069ZM6.55097 94.4989L51.855 103.28L58.126 70.9239L40.713 67.5499L37.812 80.7729C38.0814 82.8893 37.4278 85.0193 36.0178 86.6203C34.6077 88.2213 32.5774 89.1388 30.444 89.1389C28.3082 89.1384 26.2759 88.2187 24.8657 86.6146C23.4556 85.0106 22.8039 82.8772 23.077 80.7589H23.075L23.093 80.6319C23.0945 80.6222 23.0958 80.6118 23.0972 80.6013C23.0995 80.5839 23.1019 80.5661 23.105 80.5499L23.745 76.1439L25.363 64.5769L12.821 62.1459L6.55097 94.4989ZM19.05 12.0079H57.077C58.177 12.0079 59.077 11.1119 59.077 10.0179C59.077 8.92394 58.177 8.02794 57.077 8.02794H19.05C17.95 8.02794 17.05 8.92394 17.05 10.0179C17.05 11.1119 17.95 12.0079 19.05 12.0079ZM30.08 20.0149C30.08 18.9209 30.98 18.0249 32.08 18.0249H55.039C56.1396 18.0249 57.0335 18.9143 57.039 20.0149C57.039 21.1089 56.139 22.0049 55.039 22.0049H32.08C30.98 22.0049 30.08 21.1089 30.08 20.0149Z" fill="white"/>
</svg>
